<svg xmlns="http://www.w3.org/2000/svg" xmlns:xlink="http://www.w3.org/1999/xlink" version="1.1" x="0px" y="0px" viewBox="0 0 100 125" enable-background="new 0 0 100 100" xml:space="preserve"><path d="M76.449,35.196c0.074-0.271,0.127-0.548,0.127-0.837c0-0.507-0.133-0.987-0.357-1.424l1.193-1.194  c2.523-2.523,2.523-6.628,0-9.151c-1.217-1.219-2.844-1.89-4.574-1.89c-1.732,0-3.359,0.671-4.576,1.89l-1.244,1.243  c-0.637-0.266-1.352-0.313-2.021-0.151c-8.803-6.664-19.016-10.385-28.923-10.385c-0.527,0-1.05,0.011-1.572,0.032  c-0.698,0.029-1.283,0.536-1.412,1.222c-0.129,0.687,0.232,1.371,0.872,1.651c7.875,3.45,15.725,8.516,23.053,14.807l-0.359,0.357  c-0.934,0.936-1.141,2.321-0.635,3.465L15.188,75.662c-2.522,2.523-2.522,6.629,0,9.152c1.218,1.219,2.843,1.889,4.576,1.889  s3.357-0.67,4.576-1.889l40.792-40.792c0.438,0.225,0.918,0.357,1.424,0.357c0.834,0,1.615-0.323,2.203-0.91l0.35-0.35  c6.238,7.291,11.264,15.093,14.693,22.921c0.242,0.553,0.785,0.898,1.373,0.898c0.092,0,0.184-0.01,0.277-0.025  c0.686-0.131,1.193-0.715,1.221-1.414C87.094,55.322,83.348,44.438,76.449,35.196z M72.838,23.7c0.93,0,1.803,0.359,2.453,1.011  c1.354,1.354,1.354,3.556,0,4.909l-1.08,1.081l-4.91-4.909l1.082-1.081C71.033,24.059,71.906,23.7,72.838,23.7z M41.815,16.735  c7.134,1.078,14.248,4.148,20.642,8.829l-3.318,3.318C53.596,24.104,47.756,19.995,41.815,16.735z M22.218,82.693  c-1.303,1.303-3.605,1.303-4.909,0c-1.353-1.354-1.353-3.557,0-4.91l40.68-40.678l4.908,4.909L22.218,82.693z M66.555,41.379  l-7.777-7.728c-0.043-0.043-0.043-0.122,0-0.165l6.982-6.983l0.088,0.076l7.697,7.698c0.037,0.038,0.037,0.123,0,0.162l-6.908,6.908  C66.615,41.369,66.588,41.379,66.555,41.379z M71.234,40.993l3.295-3.297c4.586,6.346,7.631,13.435,8.721,20.462  C80.02,52.273,75.957,46.488,71.234,40.993z"/><text x="0" y="115" fill="#000000" font-size="5px" font-weight="bold" font-family="'Helvetica Neue', Helvetica, Arial-Unicode, Arial, Sans-serif">Created by Nikita Kozin</text><text x="0" y="120" fill="#000000" font-size="5px" font-weight="bold" font-family="'Helvetica Neue', Helvetica, Arial-Unicode, Arial, Sans-serif">from the Noun Project</text></svg>