<svg xmlns="http://www.w3.org/2000/svg" data-name="Layer 1" x="0px" y="0px">
  <title>N_F05_4Artboard 1 copy 5</title>
  <path
    d="M485.36,226.42V184.64c0-.12,0-.24,0-.36a3.15,3.15,0,0,0,0-.44,4,4,0,0,0-4-4H414.8V77.21a4,4,0,0,0-4-4,3.61,3.61,0,0,1-1.31,0H269.69a4,4,0,0,0-2.43.82L98.76,203.4l0,0-.18.15-.13.12-.13.14-.14.15a1.13,1.13,0,0,0-.1.13l-.14.18-.09.14a1.74,1.74,0,0,1-.11.18c0,.06,0,.12-.08.17l-.09.18-.07.19-.06.16-.06.22s0,.1,0,.16a1.42,1.42,0,0,0,0,.2l0,.19c0,.06,0,.12,0,.18a1.7,1.7,0,0,0,0,.22s0,0,0,.07v58l-69,53,0,0-.18.15-.13.12-.13.14-.14.15-.1.14c-.05.05-.09.11-.14.17s-.05.1-.08.14l-.12.19-.08.16a1.42,1.42,0,0,0-.08.18,1.19,1.19,0,0,0-.08.2l-.06.16-.06.21,0,.16a1.55,1.55,0,0,0,0,.21l0,.18c0,.06,0,.12,0,.19a1.48,1.48,0,0,0,0,.21s0,.05,0,.07V434.79a4,4,0,0,0,4,4H312.87l.37,0h.12l.25,0,.14,0,.23-.06.13,0,.22-.08.12-.05.23-.11.11,0,.22-.14.09-.06a1.94,1.94,0,0,0,.29-.21h0l0,0L483.89,300.21a4,4,0,0,0,1.47-3.09V226.43ZM308.88,324.67V430.8H213.62c24-12.68,64.78-43,77.29-106.13Zm4.52-7.94a4.73,4.73,0,0,0-.53,0H251.26l161-128.86h59ZM91.49,430.8C83.55,389,44.76,366.85,34.62,361.73V324.67h31.9c7.73,7.32,53.75,53,57.48,106.13ZM77.9,324.67h89.86V430.8H132C128.87,382.18,93.43,340.66,77.9,324.67Zm27.28-114.11h23.09c2.74,15.6,17.18,78.62,74.49,106.13H105.18Zm133.14,0v49.77c-38.19-2-55.58-36.44-60.91-49.77ZM406.82,114l-57.43,47.47a4,4,0,0,0,5.08,6.15l52.35-43.27v57.6L246.3,310.44V281.88c.07-.05.16-.09.23-.15L329,218.51a4,4,0,0,0-4.86-6.33L246.3,271.86V207.53L406.82,84.3Zm-237.9,96.58c4.37,11.7,23.79,55.59,69.4,57.75v48.38H225.44c-68.4-19-85.67-87.91-89.07-106.13Zm6.82,114.11h61.57c-11.23,44.4-48.55,56.22-61.57,59ZM271.05,81.2h25.4l-61.63,50.68a4,4,0,1,0,5.07,6.16L309,81.2h88.76L239.65,202.58H202.92l31.93-27.16a4,4,0,1,0-5.16-6.08l-39.08,33.24H112.94ZM97.2,316.69H42.38L97.2,274.6ZM34.62,370.83c12.43,7.08,41.67,26.93,48.73,60H34.62Zm141.12,21c13-2.68,57.79-15.59,69.78-67.12h37.24c-16.83,81.07-82.65,104.1-89,106.13h-18Zm141.12,34.59v-36l75.38-57.8a4,4,0,1,0-4.86-6.33l-70.52,54.08V324.21L477.38,193.05v31.5c-23.79,19.66-66.61,55-68.92,56.87a4,4,0,0,0,2.35,7.21,4.06,4.06,0,0,0,1.32-.22c.85-.3.88-.31,65.25-53.51v60.32Z" />
  <text x="0" y="527" fill="#000000" font-size="5px" font-weight="bold"
    font-family="'Helvetica Neue', Helvetica, Arial-Unicode, Arial, Sans-serif">Created by Teewara soontorn</text><text
    x="0" y="532" fill="#000000" font-size="5px" font-weight="bold"
    font-family="'Helvetica Neue', Helvetica, Arial-Unicode, Arial, Sans-serif">from the Noun Project</text>
</svg>