<svg xmlns="http://www.w3.org/2000/svg" data-name="Layer 1" viewBox="0 0 512 640" x="0px" y="0px"><title>N_F05_4Artboard 1 copy</title><path d="M146.79,310.56A42.78,42.78,0,1,0,104,353.34,42.83,42.83,0,0,0,146.79,310.56Zm-77.58,0a34.81,34.81,0,1,1,34.8,34.8A34.84,34.84,0,0,1,69.21,310.56Z"/><path d="M122.4,310.56A18.39,18.39,0,1,0,104,328.94,18.4,18.4,0,0,0,122.4,310.56Zm-28.79,0A10.41,10.41,0,1,1,104,321,10.41,10.41,0,0,1,93.61,310.56Z"/><path d="M229.09,267.78a42.78,42.78,0,1,0,42.78,42.78A42.83,42.83,0,0,0,229.09,267.78Zm0,77.58a34.8,34.8,0,1,1,34.81-34.8A34.84,34.84,0,0,1,229.09,345.36Z"/><path d="M229.09,292.18a18.38,18.38,0,1,0,18.39,18.38A18.4,18.4,0,0,0,229.09,292.18Zm0,28.79a10.41,10.41,0,1,1,10.41-10.41A10.42,10.42,0,0,1,229.09,321Z"/><path d="M166.55,244.22a42.78,42.78,0,1,0-42.78-42.78A42.83,42.83,0,0,0,166.55,244.22Zm0-77.58a34.8,34.8,0,1,1-34.8,34.8A34.85,34.85,0,0,1,166.55,166.64Z"/><path d="M166.55,219.82a18.38,18.38,0,1,0-18.38-18.38A18.4,18.4,0,0,0,166.55,219.82Zm0-28.79a10.41,10.41,0,1,1-10.4,10.41A10.42,10.42,0,0,1,166.55,191Z"/><path d="M408,244H396.84a65.83,65.83,0,0,0,15.41-42.59,66.61,66.61,0,0,0-66.53-66.53H166.55a66.49,66.49,0,0,0-50.06,110.3A66.53,66.53,0,1,0,104,377.09H221.88a3.87,3.87,0,0,0,1.4-.26c1.92.17,3.85.26,5.81.26H408A66.53,66.53,0,0,0,408,244ZM345.72,142.89a58.26,58.26,0,0,1,28.65,7.5H314a4,4,0,0,0,0,8h71.37A58.64,58.64,0,0,1,400.59,222H278.13a4,4,0,0,0,0,8H396.89a59.16,59.16,0,0,1-10.66,13.74c-.1.1-.2.2-.29.31H229.09a66.76,66.76,0,0,0-12.48,1.18,66.24,66.24,0,0,0,16.07-36.49h59.78a4,4,0,1,0,0-8H233.07a66,66,0,0,0-9.84-34.1H253a4,4,0,1,0,0-8H217.46a67.09,67.09,0,0,0-19.34-15.77ZM287.64,310.56A58.55,58.55,0,1,1,229.09,252,58.62,58.62,0,0,1,287.64,310.56Zm-121.09-22.7a66.4,66.4,0,0,0-12.48-21.07,66.59,66.59,0,0,0,25,0A66.77,66.77,0,0,0,166.55,287.86Zm0-145A58.55,58.55,0,1,1,108,201.44,58.62,58.62,0,0,1,166.55,142.89ZM45.46,310.56A58.55,58.55,0,1,1,104,369.11,58.62,58.62,0,0,1,45.46,310.56Zm90.12,58.55a66.89,66.89,0,0,0,31-35.85,67,67,0,0,0,31,35.85Zm272.41,0H260.66A66.78,66.78,0,0,0,280,353.36h34a4,4,0,0,0,0-8H285.76a66.41,66.41,0,0,0,0-69.62h64a4,4,0,0,0,0-8H280A67.09,67.09,0,0,0,260.66,252H408a58.66,58.66,0,0,1,55.59,40.17H358.89a4,4,0,0,0,0,8H465.61A58.63,58.63,0,0,1,463,330.57H389.61a4,4,0,1,0,0,8h69.8A58.61,58.61,0,0,1,408,369.11Z"/><text x="0" y="527" fill="#000000" font-size="5px" font-weight="bold" font-family="'Helvetica Neue', Helvetica, Arial-Unicode, Arial, Sans-serif">Created by Teewara soontorn</text><text x="0" y="532" fill="#000000" font-size="5px" font-weight="bold" font-family="'Helvetica Neue', Helvetica, Arial-Unicode, Arial, Sans-serif">from the Noun Project</text></svg>