<svg xmlns="http://www.w3.org/2000/svg" xmlns:xlink="http://www.w3.org/1999/xlink" version="1.1" x="0px" y="0px" viewBox="0 0 512 640" style="enable-background:new 0 0 512 512;" xml:space="preserve"><g><path d="M180.75,160.245l-0.194,10.008c-2.106,3.983-6.992,15.073-3.84,27.223c2.292,8.769,8.124,16.076,17.38,21.736   c4.657,20.589,22.223,55.049,60.121,55.034c0.831,0,1.691,0,2.55,0c38.113,0,56.166-34.445,61.095-55.006   c9.285-5.674,15.145-12.981,17.423-21.764c3.138-12.093-1.691-23.14-3.797-27.166v-10.166c14.419-5.735,23.67-13.56,23.67-23.419   c0-5.687-3.386-13.741-18.138-20.926c-0.099-36.457-24.711-68.376-59.785-77.803c-1.303-3.615-4.606-6.196-8.604-6.196h-25.26   c-4.046,0-7.375,2.644-8.643,6.335c-34.229,9.432-58.533,39.907-59.445,75.608l-0.101,1.956   c-14.92,7.218-18.339,15.32-18.339,21.027C156.842,146.64,166.189,154.502,180.75,160.245z M323.922,194.525   c-1.619,6.247-6.362,11.563-14.07,15.79c-1.519,0.831-2.593,2.307-2.937,4.012c-0.387,1.977-10.058,48.185-50.363,48.185   c-0.702,0.014-1.39,0.014-2.121,0c-39.99,0-48.973-46.122-49.332-48.114c-0.315-1.734-1.404-3.238-2.952-4.084   c-7.68-4.212-12.394-9.485-14.042-15.704c-2.636-9.929,3.21-19.572,3.267-19.672c0.544-0.888,0.86-1.934,0.888-2.98l0.161-7.885   c18.038,5.009,40.845,7.598,63.585,7.598c22.804,0,45.673-2.605,63.731-7.641v7.813c0,1.103,0.315,2.192,0.903,3.124   C320.699,175.068,326.487,184.653,323.922,194.525z M245.576,43.55h20.862l1.36,13.023c-3.691-1.565-7.659-2.507-11.791-2.507   c-4.175,0-8.155,0.85-11.779,2.384L245.576,43.55z M256.007,65.816c5.617,0,10.875,2.493,14.428,6.863   c2.722,3.367,4.155,7.422,4.155,11.72c0,10.245-8.339,18.584-18.584,18.584s-18.584-8.339-18.584-18.584   S245.763,65.816,256.007,65.816z M187.003,114.202c0.757-28.937,19.314-53.766,46.003-63.255l-1.656,15.917   c-3.542,4.962-5.676,10.991-5.676,17.536c0,16.721,13.612,30.333,30.333,30.333s30.333-13.612,30.333-30.333   c0-6.252-2.053-12.344-5.667-17.455l-1.684-16.11c28.019,9.791,47.23,36.655,46.452,66.692l-0.358,5.33   c-0.917,3.955-23.598,14.342-69.276,14.342s-68.345-10.388-69.262-13.984L187.003,114.202z M176.259,128.334   c8.177,16.079,52.333,20.614,79.548,20.614c27.46,0,72.148-4.609,79.757-20.71c5.652,3.338,7.845,6.427,7.845,8.489   c0,9.457-34.044,23.197-87.401,23.197c-53.372,0-87.416-13.741-87.416-23.197C168.591,134.687,170.736,131.635,176.259,128.334z"/><path d="M368.053,297.759c-20.589-11.563-42.211-19.959-64.247-24.974c-1.762-0.401-3.568,0-4.958,1.132   c-1.404,1.118-2.221,2.794-2.221,4.585c0,21.621-9.757,41.652-26.779,54.977l-13.841,10.818   c-5.101-3.983-13.841-10.818-13.841-10.818c-17.036-13.311-26.794-33.356-26.794-54.977c0-1.791-0.817-3.467-2.221-4.585   c-1.39-1.118-3.209-1.533-4.958-1.132c-22.037,5.015-43.658,13.425-64.247,24.974c-24.501,13.726-39.718,39.66-39.718,67.657   v108.908c0,3.238,2.636,5.875,5.875,5.875h42.411h0.014h206.927h0.014h42.426c3.238,0,5.875-2.636,5.875-5.875V365.417   C407.77,337.419,392.554,311.486,368.053,297.759z M334.64,294.747c6.585,2.645,13.073,5.691,19.497,8.978l-0.18,62.064H334.64   V294.747z M177.36,294.747v71.042h-19.317l-0.18-62.064C164.287,300.438,170.776,297.392,177.36,294.747z M115.979,468.45V365.417   c0-22.337,11.509-43.014,30.154-55.113l0.161,55.486h-4.74c-3.238,0-5.875,2.636-5.875,5.875v46.022   c0,3.238,2.636,5.875,5.875,5.875h4.945l0.125,44.89H115.979z M152.358,411.811h-0.014h-4.915v-34.273h4.757h0.014h36.938v34.273   H152.358z M177.36,468.45h-18.987l-0.125-44.89h19.112V468.45z M322.891,468.45H217.35h-28.241v-44.89h5.903   c3.238,0,5.875-2.636,5.875-5.875v-46.022c0-3.238-2.636-5.875-5.875-5.875h-5.903v-75.393c4.92-1.669,9.867-3.192,14.844-4.501   c2.006,22.395,13.053,42.812,30.992,56.84c0,0,16.879,13.196,17.495,13.669c2.106,1.619,5.086,1.605,7.193-0.043l17.437-13.626   c17.939-14.042,28.971-34.445,30.977-56.84c4.977,1.309,9.924,2.832,14.844,4.501v75.393h-5.889c-3.238,0-5.875,2.636-5.875,5.875   v46.022c0,3.238,2.636,5.875,5.875,5.875h5.889V468.45z M353.616,468.45H334.64v-44.89h19.123L353.616,468.45z M364.571,411.811   h-4.9h-0.014h-36.78v-34.273H359.8h0.014h4.757V411.811z M396.021,468.45h-30.657l0.147-44.89h4.934   c3.238,0,5.875-2.636,5.875-5.875v-46.022c0-3.238-2.636-5.875-5.875-5.875h-4.74l0.161-55.486   c18.645,12.099,30.154,32.776,30.154,55.113V468.45z"/></g><text x="0" y="527" fill="#000000" font-size="5px" font-weight="bold" font-family="'Helvetica Neue', Helvetica, Arial-Unicode, Arial, Sans-serif">Created by Shakeel Ch.</text><text x="0" y="532" fill="#000000" font-size="5px" font-weight="bold" font-family="'Helvetica Neue', Helvetica, Arial-Unicode, Arial, Sans-serif">from the Noun Project</text></svg>